<?xml version="1.0" standalone="no"?>
<!DOCTYPE svg PUBLIC "-//W3C//DTD SVG 20010904//EN"
 "http://www.w3.org/TR/2001/REC-SVG-20010904/DTD/svg10.dtd">
<svg version="1.0" xmlns="http://www.w3.org/2000/svg"
 width="360.000000pt" height="360.000000pt" viewBox="0 0 360.000000 360.000000"
 preserveAspectRatio="xMidYMid meet">

<g transform="translate(0.000000,360.000000) scale(0.100000,-0.100000)"
fill="#000000" stroke="none">
<path d="M1922 2188 c-178 -304 -482 -835 -482 -843 0 -5 12 -10 27 -10 26 0
44 28 280 435 l252 435 35 3 c20 2 36 1 36 -1 0 -2 -111 -194 -246 -427 -135
-234 -246 -429 -247 -435 -1 -5 11 -10 27 -10 28 0 40 18 298 464 147 255 268
465 268 467 0 2 -45 4 -100 4 l-99 0 -49 -82z"/>
<path d="M1138 2007 c-125 -73 -228 -134 -228 -137 0 -3 80 -51 178 -107 256
-148 242 -138 242 -173 0 -16 -3 -30 -7 -30 -5 0 -98 52 -208 115 -110 63
-203 115 -207 115 -5 0 -8 -13 -8 -29 0 -27 14 -37 232 -162 127 -74 235 -136
240 -137 5 -2 7 42 6 99 l-3 102 -170 98 c-93 54 -170 103 -170 108 0 11 269
171 287 171 5 0 8 -15 6 -32 -3 -30 -12 -38 -90 -83 -48 -27 -88 -53 -88 -56
0 -3 11 -12 24 -19 23 -12 33 -9 113 37 l88 50 3 102 c1 55 -1 101 -5 100 -4
0 -110 -60 -235 -132z"/>
<path d="M2222 2039 l3 -101 177 -102 c97 -55 173 -104 170 -108 -13 -12 -284
-168 -294 -168 -5 0 -8 14 -6 32 3 29 12 38 83 80 44 26 85 49 90 51 11 5 -24
36 -42 37 -6 0 -50 -23 -97 -51 l-86 -50 0 -100 c0 -56 4 -99 8 -97 24 9 462
264 462 268 0 3 -93 60 -207 125 -198 114 -208 122 -211 153 -2 17 1 32 6 32
5 0 96 -50 200 -110 105 -61 198 -113 207 -116 11 -5 15 1 15 24 0 29 -10 36
-235 166 -129 75 -237 136 -240 136 -3 0 -4 -46 -3 -101z"/>
</g>
</svg>
